<?xml version="1.0" standalone="no"?>
<!DOCTYPE svg PUBLIC "-//W3C//DTD SVG 20010904//EN"
 "http://www.w3.org/TR/2001/REC-SVG-20010904/DTD/svg10.dtd">
<svg version="1.0" xmlns="http://www.w3.org/2000/svg"
 width="1507.000000pt" height="1109.000000pt" viewBox="0 0 1507.000000 1109.000000"
 preserveAspectRatio="xMidYMid meet">

<g transform="translate(0.000000,1109.000000) scale(0.100000,-0.100000)"
fill="#000000" stroke="none">
<path d="M5360 11048 c-30 -5 -63 -9 -73 -9 -57 0 -292 -104 -384 -169 -23
-17 -1136 -1124 -2473 -2461 l-2433 -2431 359 -360 c198 -198 384 -379 414
-402 87 -68 172 -113 283 -151 125 -42 177 -50 332 -49 134 2 234 22 358 74
176 73 109 9 1914 1813 1034 1033 1695 1686 1716 1696 43 20 165 20 205 0 31
-15 572 -549 572 -564 0 -6 -459 -469 -1020 -1030 -561 -561 -1020 -1024
-1020 -1030 0 -13 617 -631 624 -625 3 3 585 583 1293 1290 l1287 1285 -3 101
c-2 70 1 104 9 109 7 4 18 22 25 39 8 18 26 38 42 46 15 8 37 22 48 31 11 10
23 18 28 18 4 1 10 1 15 2 4 1 32 2 62 2 73 2 165 -42 191 -92 10 -19 23 -39
29 -45 5 -5 10 -48 9 -95 0 -80 -2 -89 -33 -130 -31 -43 -63 -69 -116 -91 -30
-14 -126 -15 -159 -2 -23 8 -109 -75 -1318 -1284 -800 -800 -1291 -1297 -1288
-1306 9 -22 208 -145 242 -149 5 -1 17 -6 28 -11 19 -11 97 -34 145 -44 14 -3
41 -9 60 -13 44 -9 247 -5 320 7 136 23 288 91 415 188 39 29 383 366 765 748
382 383 699 696 705 696 6 0 330 -320 720 -711 625 -625 750 -744 840 -796 57
-33 133 -65 226 -94 98 -31 112 -33 254 -33 83 1 177 6 210 12 92 17 282 99
365 158 19 14 359 349 755 744 396 396 727 720 735 720 8 0 330 -315 715 -701
624 -625 757 -753 830 -796 92 -55 255 -119 326 -128 19 -2 52 -7 74 -10 54
-7 189 -7 245 1 138 19 327 97 444 183 70 52 790 770 782 779 -4 4 -467 467
-1029 1029 l-1022 1023 1028 1027 c565 565 1027 1029 1027 1032 0 4 -139 145
-309 315 l-309 309 -1297 -1297 c-1046 -1045 -1296 -1299 -1289 -1314 4 -9 10
-43 12 -75 4 -63 -19 -129 -61 -175 -38 -41 -116 -70 -185 -69 -34 0 -62 4
-62 9 0 4 -6 5 -13 2 -8 -3 -20 2 -27 11 -7 8 -18 15 -24 15 -18 0 -50 38 -76
89 -30 61 -30 165 0 224 25 49 58 87 76 87 6 0 17 7 24 15 7 9 19 14 27 11 7
-3 13 -2 13 3 0 11 129 8 153 -3 16 -7 229 202 1313 1285 l1295 1294 -28 23
c-37 30 -161 105 -198 120 -16 6 -43 17 -60 23 -16 7 -33 13 -37 14 -5 2 -9 3
-10 5 -2 1 -11 3 -22 5 -10 2 -40 9 -66 15 -161 39 -393 22 -535 -37 -222 -93
-219 -91 -1010 -882 -385 -386 -707 -701 -715 -701 -8 0 -330 315 -715 701
-385 385 -725 720 -756 744 -86 68 -248 147 -326 161 -15 3 -53 11 -83 19 -63
17 -328 15 -371 -3 -14 -6 -42 -13 -62 -16 -67 -11 -257 -99 -299 -139 -7 -6
-29 -24 -48 -38 -19 -15 -351 -342 -738 -728 -386 -386 -707 -701 -712 -701
-6 0 -338 326 -739 726 -744 741 -794 786 -910 830 -25 9 -50 20 -56 25 -13
10 -169 49 -220 55 -83 9 -192 10 -245 2z m4296 -2450 c3 -4 10 -6 15 -3 5 4
16 -1 25 -9 8 -9 21 -16 27 -16 7 0 134 -122 282 -270 l270 -270 -281 -281
c-217 -217 -287 -281 -307 -282 -15 -1 -27 -5 -27 -8 0 -7 -17 -8 -84 -9 -16
0 -50 6 -76 15 -40 13 -85 54 -316 285 -148 148 -269 273 -269 278 0 6 115
129 257 274 222 228 263 266 310 285 54 22 163 29 174 11z"/>
<path d="M4085 2834 c-242 -38 -433 -215 -489 -454 -52 -217 14 -470 159 -615
222 -222 598 -221 821 2 75 75 134 186 160 299 25 114 16 272 -23 379 -84 233
-275 377 -517 389 -44 2 -94 2 -111 0z m237 -263 c182 -88 251 -348 148 -557
-35 -72 -81 -116 -160 -153 -46 -22 -69 -26 -145 -26 -78 0 -99 4 -153 29 -77
36 -142 104 -174 184 -19 48 -23 76 -23 173 0 116 0 117 40 195 45 88 105 143
185 169 69 23 222 15 282 -14z"/>
<path d="M14357 2824 c-220 -47 -381 -206 -443 -435 -23 -85 -23 -252 -1 -339
57 -219 215 -382 422 -435 76 -19 214 -19 290 0 164 42 302 155 375 306 183
382 -17 831 -403 904 -96 18 -151 18 -240 -1z m257 -244 c182 -69 271 -312
192 -529 -65 -179 -261 -263 -459 -195 -28 9 -71 37 -102 66 -200 182 -142
565 99 657 71 28 196 28 270 1z"/>
<path d="M0 2216 l0 -606 120 0 120 0 0 250 0 250 154 0 c175 0 240 14 319 69
137 94 182 293 102 451 -29 57 -110 134 -172 163 -45 20 -64 22 -345 25 l-298
3 0 -605z m566 368 c71 -52 89 -117 54 -189 -35 -73 -69 -85 -240 -85 l-140 0
0 151 0 150 149 -3 c133 -3 153 -5 177 -24z"/>
<path d="M928 2719 c-2 -55 -1 -103 1 -105 2 -2 73 -4 158 -4 l153 0 0 -500 0
-501 115 3 116 3 -1 498 0 497 155 0 155 0 0 105 0 105 -424 0 -425 0 -3 -101z"/>
<path d="M2310 2215 l0 -605 120 0 120 0 2 421 3 421 308 -421 308 -421 125 0
124 0 0 605 0 605 -120 0 -120 0 0 -415 c0 -228 -3 -415 -7 -414 -5 0 -144
187 -311 415 l-303 414 -125 0 -124 0 0 -605z"/>
<path d="M4995 2223 c-132 -328 -242 -600 -243 -605 -2 -5 56 -7 128 -6 l133
3 41 113 41 112 275 -2 274 -3 42 -110 41 -110 132 -3 132 -3 -14 33 c-7 18
-116 291 -242 606 l-229 572 -136 0 -136 0 -239 -597z m385 335 c1 -7 43 -125
94 -263 l93 -250 -195 -3 c-107 -1 -196 -1 -198 0 -1 2 40 116 92 253 51 138
94 256 94 263 0 6 5 12 10 12 6 0 10 -6 10 -12z"/>
<path d="M6090 2215 l0 -605 120 0 120 0 0 250 0 250 260 0 260 0 0 -250 0
-250 120 0 120 0 0 605 0 605 -120 0 -120 0 0 -250 0 -250 -260 0 -260 0 0
250 0 250 -120 0 -120 0 0 -605z"/>
<path d="M8061 2798 c-5 -13 -113 -283 -240 -601 -127 -317 -231 -579 -231
-582 0 -3 58 -5 128 -5 l129 0 43 115 42 115 273 0 273 0 30 -77 c16 -43 35
-95 43 -115 l13 -38 128 0 c70 0 128 3 128 8 0 4 -107 275 -238 602 l-238 595
-137 3 c-135 3 -137 2 -146 -20z m245 -490 c52 -139 94 -256 94 -260 0 -5 -88
-8 -196 -8 -153 0 -195 3 -192 13 44 126 194 515 197 512 2 -3 46 -119 97
-257z"/>
<path d="M8930 2216 l0 -606 120 0 120 0 0 255 0 256 61 -3 62 -3 130 -252
131 -253 134 0 c103 0 133 3 129 13 -3 6 -68 125 -144 262 l-139 250 54 27
c68 33 126 88 160 153 24 44 27 61 27 145 0 82 -4 103 -26 151 -37 79 -90 133
-167 171 l-66 33 -293 3 -293 3 0 -605z m558 374 c93 -57 97 -197 5 -257 -22
-15 -53 -19 -175 -21 l-148 -4 0 151 0 151 143 0 c124 0 146 -3 175 -20z"/>
<path d="M9910 2215 l0 -605 120 0 120 0 0 301 c0 166 4 299 9 297 4 -1 164
-151 355 -333 191 -181 350 -331 354 -333 4 -1 6 70 5 158 l-2 159 -68 64
c-37 35 -140 130 -228 212 -88 81 -162 152 -163 157 -3 7 187 212 427 461 l65
67 -156 0 -156 0 -218 -236 -219 -236 -3 236 -2 236 -120 0 -120 0 0 -605z"/>
<path d="M11040 2215 l0 -605 120 0 120 0 0 605 0 605 -120 0 -120 0 0 -605z"/>
<path d="M11480 2215 l0 -605 120 0 120 0 2 420 3 420 306 -417 305 -418 125
0 124 0 3 603 2 602 -120 0 -120 0 0 -415 c0 -228 -3 -415 -7 -415 -5 1 -145
187 -312 415 l-303 415 -124 0 -124 0 0 -605z"/>
<path d="M12780 2215 l0 -607 248 4 c264 5 298 11 407 65 167 83 288 248 321
435 52 290 -114 573 -396 676 -73 26 -82 27 -327 30 l-253 4 0 -607z m531 362
c239 -115 288 -463 93 -654 -73 -71 -138 -94 -276 -101 l-108 -5 0 398 0 397
118 -4 c102 -3 124 -7 173 -31z"/>
<path d="M3804 1056 c-269 -68 -380 -400 -215 -640 98 -142 305 -196 458 -120
l58 29 3 57 3 57 -51 -34 c-28 -19 -68 -39 -88 -45 -133 -37 -276 30 -339 158
-25 50 -28 68 -28 147 1 69 6 101 21 135 78 171 281 229 434 124 l50 -34 0 55
0 56 -63 30 c-76 35 -167 45 -243 25z"/>
<path d="M10815 1057 c-232 -61 -354 -313 -265 -550 77 -206 321 -306 510
-210 l55 29 3 56 3 57 -51 -34 c-85 -58 -164 -69 -260 -38 -231 75 -272 431
-63 563 99 63 220 61 320 -5 l53 -35 0 55 0 56 -63 30 c-76 35 -168 45 -242
26z"/>
<path d="M307 1023 c-8 -21 -78 -195 -156 -387 -78 -192 -141 -353 -141 -358
0 -4 22 -8 49 -8 l48 0 33 85 33 85 202 0 202 0 33 -85 33 -85 50 0 c42 0 49
3 45 18 -3 9 -74 187 -158 395 l-152 377 -53 0 c-52 0 -53 -1 -68 -37z m158
-293 l82 -210 -172 0 -173 0 78 198 c42 108 80 206 84 216 3 10 9 16 13 13 3
-4 43 -101 88 -217z"/>
<path d="M1853 683 c-84 -208 -156 -386 -159 -396 -6 -16 -1 -18 45 -15 l52 3
32 80 32 80 204 0 203 0 31 -82 31 -83 53 0 52 0 -158 393 -159 392 -53 3 -54
3 -152 -378z m217 255 c0 -7 36 -103 79 -213 l78 -200 -165 -3 c-91 -1 -167
-1 -169 2 -2 2 33 99 78 215 73 188 98 239 99 199z"/>
<path d="M2530 665 l0 -395 50 0 50 0 0 395 0 395 -50 0 -50 0 0 -395z"/>
<path d="M2790 666 l0 -396 134 0 c159 0 236 19 314 78 65 48 96 87 130 159
24 51 27 70 27 158 0 93 -2 105 -33 167 -42 85 -128 167 -209 199 -49 19 -83
23 -210 27 l-153 4 0 -396z m311 292 c94 -32 166 -110 195 -213 42 -152 -45
-323 -189 -371 -32 -11 -85 -18 -137 -18 l-85 -1 -3 308 -2 307 93 0 c52 0
109 -5 128 -12z"/>
<path d="M4520 664 l0 -396 158 4 c152 3 159 4 224 35 252 119 311 441 117
635 -90 90 -179 118 -374 118 l-125 0 0 -396z m336 287 c59 -27 121 -86 152
-145 23 -44 27 -63 27 -141 0 -78 -4 -97 -27 -141 -32 -60 -94 -119 -155 -146
-33 -14 -70 -20 -141 -21 l-97 -2 -3 308 -2 307 102 0 c79 0 113 -5 144 -19z"/>
<path d="M7130 665 l0 -395 45 0 c45 0 45 0 45 35 l0 36 38 -29 c120 -94 285
-54 353 85 18 38 23 65 23 133 1 73 -3 93 -27 142 -43 88 -109 129 -207 130
-60 1 -112 -17 -147 -51 -12 -11 -25 -21 -28 -21 -3 0 -5 74 -5 165 l0 165
-45 0 -45 0 0 -395z m340 32 c98 -66 106 -235 15 -316 -109 -95 -265 -7 -265
151 0 67 32 134 79 165 47 32 125 32 171 0z"/>
<path d="M5285 986 c-21 -32 -17 -54 16 -79 24 -17 30 -18 54 -6 60 30 48 102
-17 107 -30 3 -40 -1 -53 -22z"/>
<path d="M6866 997 c-29 -21 -18 -79 18 -96 25 -12 31 -11 55 6 32 25 37 47
17 78 -18 28 -61 33 -90 12z"/>
<path d="M8776 991 c-23 -26 -17 -60 15 -84 24 -17 30 -18 55 -6 35 17 45 67
19 93 -22 22 -68 20 -89 -3z"/>
<path d="M6072 885 l3 -84 -34 -3 c-32 -3 -35 -5 -35 -38 0 -33 3 -35 35 -38
l34 -3 -3 -142 c-2 -81 1 -164 8 -193 22 -102 125 -152 225 -110 41 17 42 24
14 60 -16 21 -24 24 -39 16 -30 -16 -68 -12 -90 10 -18 18 -20 33 -20 190 l0
170 70 0 70 0 0 40 0 40 -70 0 -70 0 0 85 0 85 -51 0 -50 0 3 -85z"/>
<path d="M8400 886 l0 -85 -32 -3 c-30 -3 -33 -6 -33 -38 0 -32 3 -35 33 -38
l32 -3 0 -166 c0 -148 2 -172 21 -209 35 -72 132 -104 214 -70 19 8 35 19 35
23 0 4 -11 22 -24 38 -20 24 -27 28 -37 18 -19 -19 -73 -16 -92 5 -13 14 -17
48 -19 189 l-3 172 70 3 70 3 0 35 0 35 -72 3 -73 3 0 84 0 85 -45 0 -45 0 0
-84z"/>
<path d="M1070 800 c-41 -7 -77 -25 -107 -53 l-23 -20 -1 21 c-1 12 -2 28 -3
35 0 7 -19 13 -43 15 l-43 3 0 -265 0 -266 45 0 45 0 0 171 c0 136 3 178 16
205 23 48 70 74 134 74 48 0 56 -4 91 -39 l39 -39 0 -186 0 -186 50 0 50 0 0
168 c0 92 -5 187 -11 212 -24 106 -128 171 -239 150z"/>
<path d="M5686 799 c-88 -20 -139 -76 -138 -152 1 -72 37 -101 177 -147 39
-13 80 -29 91 -37 45 -29 35 -92 -17 -113 -48 -20 -150 -8 -197 22 l-39 27
-23 -31 c-22 -30 -22 -31 -4 -46 39 -29 105 -53 167 -59 154 -14 266 85 227
202 -15 44 -61 76 -152 104 -83 25 -124 45 -132 66 -30 80 76 123 183 75 24
-11 44 -20 45 -20 1 0 12 14 25 30 l22 31 -53 23 c-63 28 -128 37 -182 25z"/>
<path d="M6655 805 c-5 -2 -22 -6 -38 -9 -15 -4 -45 -22 -67 -42 l-39 -35 -3
38 c-3 37 -4 38 -43 38 l-40 0 -3 -262 -2 -263 45 0 45 0 0 146 c0 181 10 222
62 270 38 34 42 36 105 32 59 -3 66 -1 83 22 11 14 20 28 20 33 0 14 -100 40
-125 32z"/>
<path d="M9211 799 c-150 -29 -234 -192 -185 -360 21 -71 98 -149 167 -168
135 -38 279 39 318 169 15 51 7 177 -14 221 -51 104 -168 161 -286 138z m160
-114 c42 -40 59 -83 59 -152 0 -132 -97 -218 -210 -184 -137 41 -161 274 -36
353 24 15 45 18 93 16 53 -3 68 -9 94 -33z"/>
<path d="M9856 799 c-43 -10 -106 -45 -106 -60 0 -5 -4 -9 -10 -9 -5 0 -10 16
-10 35 0 34 -1 35 -40 35 l-40 0 0 -265 0 -265 45 0 45 0 0 178 c0 197 8 225
69 257 44 22 122 20 155 -6 51 -40 56 -63 56 -254 l0 -175 45 0 45 0 0 193 c0
184 -1 196 -23 238 -41 77 -140 119 -231 98z"/>
<path d="M11388 796 c-105 -29 -169 -101 -190 -215 -22 -117 35 -241 136 -294
58 -30 174 -31 232 0 147 78 187 280 84 422 -53 73 -171 112 -262 87z m146
-96 c49 -30 80 -93 80 -165 0 -73 -23 -125 -72 -163 -50 -38 -134 -38 -184 0
-100 76 -96 262 7 328 41 27 127 27 169 0z"/>
<path d="M12027 796 c-26 -7 -58 -23 -70 -35 -30 -27 -35 -27 -39 7 -3 24 -7
27 -43 27 l-40 0 -3 -262 -2 -263 45 0 45 0 0 168 c0 142 3 173 19 209 23 50
63 73 127 73 39 0 51 -5 80 -34 l34 -34 0 -191 0 -191 50 0 50 0 0 181 c0 198
5 220 60 253 41 23 111 21 145 -6 48 -37 55 -71 55 -258 l0 -170 46 0 45 0 -3
203 c-3 203 -3 204 -31 245 -35 54 -95 85 -163 85 -60 0 -134 -32 -163 -69
l-20 -25 -15 24 c-20 29 -80 63 -126 70 -19 3 -57 0 -83 -7z"/>
<path d="M12996 799 c-43 -10 -106 -46 -106 -60 0 -5 -4 -9 -10 -9 -5 0 -10
16 -10 36 l0 35 -42 -3 -43 -3 -3 -392 -2 -393 45 0 45 0 0 160 c0 88 3 160 6
160 3 0 20 -11 37 -24 121 -89 285 -44 348 96 32 72 33 192 3 259 -50 107
-159 163 -268 138z m120 -98 c44 -27 74 -82 81 -146 18 -170 -145 -276 -264
-172 -46 41 -63 82 -63 154 0 69 28 126 79 160 44 29 122 31 167 4z"/>
<path d="M13543 800 c-23 -5 -54 -15 -70 -23 -28 -15 -80 -65 -72 -69 2 -2 16
-14 31 -27 l27 -24 35 31 c62 54 155 55 208 2 24 -25 28 -36 28 -85 0 -55 -1
-57 -22 -51 -13 4 -63 9 -113 12 -81 5 -94 3 -134 -18 -58 -30 -84 -76 -78
-141 12 -142 167 -190 308 -96 l44 29 3 -36 c3 -35 4 -35 45 -32 l42 3 0 195
c0 163 -3 200 -17 226 -28 51 -81 91 -138 103 -57 12 -67 12 -127 1z m177
-314 c11 -5 15 -16 12 -40 -3 -25 -13 -39 -45 -59 -79 -51 -154 -59 -190 -19
-27 31 -26 83 4 113 20 20 29 21 113 16 50 -3 98 -8 106 -11z"/>
<path d="M14197 799 c-47 -11 -89 -33 -108 -55 -13 -16 -14 -14 -19 17 -5 32
-7 34 -45 34 l-40 0 -3 -263 -2 -263 46 3 46 3 -1 152 c-2 179 6 220 54 262
30 26 44 31 86 31 59 0 99 -18 125 -57 17 -24 19 -51 22 -210 l4 -183 44 0 44
0 0 185 c0 205 -6 234 -62 292 -45 47 -123 68 -191 52z"/>
<path d="M5290 535 l0 -265 45 0 45 0 0 265 0 265 -45 0 -45 0 0 -265z"/>
<path d="M6867 793 c-4 -3 -7 -123 -7 -265 l0 -258 45 0 45 0 0 265 0 265 -38
0 c-21 0 -42 -3 -45 -7z"/>
<path d="M7767 793 c-11 -11 -8 -345 4 -386 22 -81 111 -147 199 -147 48 0
116 26 139 53 20 25 31 21 31 -13 0 -29 2 -30 45 -30 l45 0 -2 262 -3 263 -45
0 -45 0 -5 -185 c-6 -209 -8 -218 -78 -251 -67 -33 -139 -14 -179 48 -15 23
-19 56 -21 210 l-4 183 -37 0 c-21 0 -41 -3 -44 -7z"/>
<path d="M8780 536 l0 -266 45 0 45 0 -2 263 -3 262 -42 3 -43 3 0 -265z"/>
<path d="M14604 786 c-3 -9 -4 -95 -2 -193 3 -168 4 -181 28 -223 51 -90 160
-132 254 -96 24 9 52 26 61 36 27 30 35 24 35 -22 -1 -146 -70 -220 -192 -204
-54 7 -89 20 -130 49 l-28 18 0 -51 0 -51 47 -21 c109 -48 251 -30 323 42 65
65 70 99 70 437 l0 293 -44 0 -44 0 -4 -182 c-3 -170 -5 -185 -25 -214 -42
-59 -115 -78 -180 -48 -63 30 -67 47 -73 254 l-5 185 -43 3 c-31 2 -44 -1 -48
-12z"/>
</g>
</svg>
